<svg width="200" height="200" viewBox="0 0 200 200" fill="none" xmlns="http://www.w3.org/2000/svg">
<rect width="200" height="200" fill="white"/>
<path d="M120.027 15.0349C101.956 17.6435 94.2996 29.8915 94.2996 29.8915C93.3476 27.3914 92.1224 25.0032 90.6463 22.7701C90.5391 22.6121 90.3849 22.4915 90.2054 22.4252C90.026 22.3589 89.8302 22.3502 89.6455 22.4004C87.5782 23.0437 85.6571 24.0839 83.9906 25.4624C83.8959 25.5387 83.8175 25.6331 83.7598 25.7399C83.7021 25.8468 83.6664 25.964 83.6547 26.0848C83.6429 26.2055 83.6555 26.3274 83.6915 26.4433C83.7275 26.5592 83.7864 26.6668 83.8646 26.7598C86.7064 30.2771 89.017 34.1896 90.7233 38.373C90.7336 38.3799 90.7458 38.3836 90.7583 38.3836C90.7707 38.3836 90.7829 38.3799 90.7933 38.373C93.8347 37.9134 96.9063 37.6802 99.9825 37.6755H100.766C102.131 35.9736 107.653 29.2638 112.468 25.6368C112.58 25.5434 112.723 25.4955 112.869 25.5025C113.015 25.5096 113.153 25.5711 113.255 25.6749C113.358 25.7787 113.417 25.9171 113.422 26.0625C113.426 26.208 113.376 26.3498 113.28 26.4598C110.851 29.5288 107.681 33.1348 104.399 37.7174C104.391 37.7284 104.387 37.741 104.386 37.7542C104.385 37.7673 104.388 37.7804 104.393 37.7923C104.399 37.8043 104.407 37.8145 104.418 37.8221C104.429 37.8298 104.442 37.8345 104.455 37.836C107.756 38.0752 111.033 38.5813 114.253 39.3495C114.263 39.3544 114.273 39.357 114.284 39.357C114.295 39.357 114.306 39.3544 114.316 39.3495C122.014 32.7024 123.358 23.1119 123.47 18.055C123.474 17.6213 123.384 17.1918 123.207 16.7957C123.029 16.3996 122.769 16.0463 122.442 15.7597C122.115 15.4731 121.73 15.2601 121.313 15.135C120.897 15.0099 120.458 14.9758 120.027 15.0349V15.0349Z" fill="#5FD972"/>
<path d="M99.9964 41.0234C73.1076 41.0234 51.2998 59.6535 51.2998 82.6359C51.2998 96.8368 59.6282 109.371 72.3378 116.883L68.5095 129.807C68.3591 130.313 68.3627 130.852 68.5197 131.355C68.6768 131.859 68.9802 132.305 69.3916 132.636C69.803 132.968 70.3039 133.17 70.8309 133.218C71.3578 133.266 71.8871 133.156 72.3518 132.904L90.0304 123.39C93.3212 123.961 96.6562 124.241 99.9964 124.227C126.892 124.227 148.7 105.597 148.7 82.615C148.7 59.6326 126.892 41.0234 99.9964 41.0234ZM105.161 110.131C87.6648 110.131 73.4715 98.0016 73.4715 83.0474C73.4715 68.0931 87.6578 55.9637 105.161 55.9637C122.665 55.9637 136.858 68.0862 136.858 83.0474C136.858 98.0086 122.665 110.131 105.161 110.131V110.131Z" fill="#F26E22"/>
<path d="M97.7008 85.8583C99.4904 85.8583 100.941 84.4124 100.941 82.6289C100.941 80.8453 99.4904 79.3995 97.7008 79.3995C95.9112 79.3995 94.4604 80.8453 94.4604 82.6289C94.4604 84.4124 95.9112 85.8583 97.7008 85.8583Z" fill="#F26E22"/>
<path d="M108.08 90.8174C109.869 90.8174 111.32 89.3716 111.32 87.588C111.32 85.8045 109.869 84.3586 108.08 84.3586C106.29 84.3586 104.839 85.8045 104.839 87.588C104.839 89.3716 106.29 90.8174 108.08 90.8174Z" fill="#F26E22"/>
<path d="M118.459 85.8583C120.248 85.8583 121.699 84.4124 121.699 82.6289C121.699 80.8453 120.248 79.3995 118.459 79.3995C116.669 79.3995 115.218 80.8453 115.218 82.6289C115.218 84.4124 116.669 85.8583 118.459 85.8583Z" fill="#F26E22"/>
<path d="M37.7869 164.268C38.9869 164.268 39.9709 164.196 40.7389 164.052C41.5309 163.908 42.1549 163.692 42.6109 163.404C43.0909 163.116 43.4149 162.756 43.5829 162.324C43.7749 161.868 43.8709 161.328 43.8709 160.704C43.8709 160.08 43.7629 159.54 43.5469 159.084C43.3549 158.628 42.9589 158.256 42.3589 157.968C41.7589 157.656 40.9189 157.428 39.8389 157.284C38.7589 157.14 37.3549 157.068 35.6269 157.068H23.6389C23.1349 157.068 22.8829 156.828 22.8829 156.348V152.568C22.8829 152.088 23.1349 151.848 23.6389 151.848H35.4469C38.3989 151.848 40.8469 152.052 42.7909 152.46C44.7349 152.868 46.2829 153.468 47.4349 154.26C48.5869 155.028 49.3909 155.964 49.8469 157.068C50.3269 158.172 50.5669 159.408 50.5669 160.776C50.5669 162.144 50.3389 163.38 49.8829 164.484C49.4509 165.564 48.7309 166.488 47.7229 167.256C46.7389 168 45.4309 168.576 43.7989 168.984C42.1669 169.368 40.1629 169.56 37.7869 169.56H36.3469C33.9709 169.56 31.9669 169.368 30.3349 168.984C28.7269 168.576 27.4189 168 26.4109 167.256C25.4269 166.488 24.7189 165.564 24.2869 164.484C23.8549 163.38 23.6389 162.144 23.6389 160.776V158.868C23.6389 158.388 23.8789 158.148 24.3589 158.148H29.5789C30.0829 158.148 30.3349 158.388 30.3349 158.868V160.704C30.3349 161.136 30.4189 161.568 30.5869 162C30.7789 162.432 31.0909 162.816 31.5229 163.152C31.9789 163.488 32.5909 163.764 33.3589 163.98C34.1509 164.172 35.1469 164.268 36.3469 164.268H37.7869ZM23.4949 180C22.9909 180 22.7389 179.748 22.7389 179.244V175.212C22.7389 174.732 22.9909 174.492 23.4949 174.492H33.4669V171.504C33.4669 171.024 33.7069 170.784 34.1869 170.784H39.7309C40.2109 170.784 40.4509 171.024 40.4509 171.504V174.492H50.3869C50.8909 174.492 51.1429 174.732 51.1429 175.212V179.244C51.1429 179.748 50.8909 180 50.3869 180H23.4949ZM55.2761 169.812C54.7721 169.812 54.5201 169.572 54.5201 169.092V159.66C54.5201 159.18 54.7721 158.94 55.2761 158.94H60.5321V156.636H55.2041C54.7001 156.636 54.4481 156.396 54.4481 155.916V152.604C54.4481 152.124 54.7001 151.884 55.2041 151.884H65.7161C66.2201 151.884 66.4721 152.124 66.4721 152.604V161.892C66.4721 162.372 66.2201 162.612 65.7161 162.612H60.4601V164.988H67.6241C68.0801 164.988 68.3081 165.228 68.3081 165.708V169.056C68.3081 169.56 68.0801 169.812 67.6241 169.812H55.2761ZM82.2401 175.14C82.7201 175.14 82.9601 175.38 82.9601 175.86V179.64C82.9601 180.12 82.7201 180.36 82.2401 180.36H56.2841C55.8041 180.36 55.5641 180.12 55.5641 179.64V172.728C55.5641 172.248 55.8041 172.008 56.2841 172.008H61.7201C62.2001 172.008 62.4401 172.248 62.4401 172.728V175.14H82.2401ZM75.4001 170.712C75.4001 171.216 75.1601 171.468 74.6801 171.468H70.7201C70.2401 171.468 70.0001 171.216 70.0001 170.712V163.08H68.2361C67.7801 163.08 67.5521 162.84 67.5521 162.36V158.148C67.5521 157.644 67.7801 157.392 68.2361 157.392H70.0001V152.208C70.0001 151.704 70.2401 151.452 70.7201 151.452H74.6801C75.1601 151.452 75.4001 151.704 75.4001 152.208V170.712ZM77.1641 152.1C77.1641 151.596 77.4041 151.344 77.8841 151.344H81.8801C82.3601 151.344 82.6001 151.596 82.6001 152.1V171.108C82.6001 171.588 82.3601 171.828 81.8801 171.828H77.8841C77.4041 171.828 77.1641 171.588 77.1641 171.108V152.1ZM86.5174 152.784C86.5174 152.304 86.7694 152.064 87.2734 152.064H103.977C104.481 152.064 104.733 152.304 104.733 152.784V156.852C104.733 157.332 104.481 157.572 103.977 157.572H99.3694L92.9254 180C92.8054 180.384 92.5054 180.576 92.0254 180.576H86.8414C86.3134 180.576 86.1214 180.288 86.2654 179.712L92.4574 157.572H87.2734C86.7694 157.572 86.5174 157.332 86.5174 156.852V152.784ZM108.297 180.72C107.793 180.72 107.541 180.48 107.541 180V152.1C107.541 151.596 107.793 151.344 108.297 151.344H113.445C113.949 151.344 114.201 151.596 114.201 152.1V180C114.201 180.48 113.949 180.72 113.445 180.72H108.297ZM99.6574 180.468C99.2014 180.468 98.9254 180.276 98.8294 179.892L96.4174 172.584C96.3694 172.416 96.3454 172.272 96.3454 172.152C96.3694 172.008 96.4054 171.84 96.4534 171.648L98.9374 162.972C99.0094 162.66 99.1534 162.492 99.3694 162.468C99.6094 162.444 99.7894 162.6 99.9094 162.936L105.525 179.64C105.669 180.192 105.489 180.468 104.985 180.468H99.6574ZM139.395 180.72C138.891 180.72 138.639 180.48 138.639 180V152.1C138.639 151.596 138.891 151.344 139.395 151.344H144.543C145.047 151.344 145.299 151.596 145.299 152.1V162.036H147.171C147.651 162.036 147.891 162.288 147.891 162.792V167.58C147.891 168.06 147.651 168.3 147.171 168.3H145.299V180C145.299 180.48 145.047 180.72 144.543 180.72H139.395ZM118.443 157.392C117.963 157.392 117.723 157.152 117.723 156.672V152.82C117.723 152.316 117.963 152.064 118.443 152.064H135.363C135.867 152.064 136.119 152.304 136.119 152.784V179.46C136.119 179.94 135.867 180.18 135.363 180.18H118.839C118.335 180.18 118.083 179.94 118.083 179.46V159.192C118.083 158.712 118.335 158.472 118.839 158.472H123.951C124.455 158.472 124.707 158.712 124.707 159.192V174.852H129.495V157.392H118.443ZM149.54 159.12C149.54 158.64 149.792 158.4 150.296 158.4H156.956C157.004 158.04 157.04 157.668 157.064 157.284C157.112 156.9 157.136 156.504 157.136 156.096H150.584C150.104 156.096 149.864 155.856 149.864 155.376V152.604C149.864 152.124 150.104 151.884 150.584 151.884H162.212C162.716 151.884 162.968 152.136 162.968 152.64V155.592C162.968 156 162.956 156.408 162.932 156.816C162.908 157.2 162.872 157.584 162.824 157.968H164.984V152.208C164.984 151.704 165.224 151.452 165.704 151.452H169.844C170.324 151.452 170.564 151.704 170.564 152.208V168.12C170.564 168.6 170.324 168.84 169.844 168.84H165.704C165.224 168.84 164.984 168.6 164.984 168.12V163.836H162.464C162.008 163.836 161.78 163.596 161.78 163.116V162.072C160.82 164.4 159.404 166.248 157.532 167.616C155.66 168.96 153.524 169.752 151.124 169.992C150.884 170.016 150.704 169.968 150.584 169.848C150.464 169.704 150.404 169.524 150.404 169.308V166.392C150.404 165.984 150.644 165.744 151.124 165.672C152.084 165.528 152.948 165.156 153.716 164.556C154.508 163.956 155.168 163.176 155.696 162.216L150.296 162.432C149.792 162.432 149.54 162.192 149.54 161.712V159.12ZM172.328 152.1C172.328 151.596 172.568 151.344 173.048 151.344H177.224C177.704 151.344 177.944 151.596 177.944 152.1V169.92C177.944 170.4 177.704 170.64 177.224 170.64H173.048C172.568 170.64 172.328 170.4 172.328 169.92V152.1ZM160.592 180.18C160.328 180.42 159.98 180.54 159.548 180.54H158.684H158.54H150.836C150.332 180.54 150.08 180.3 150.08 179.82V175.86C150.08 175.38 150.332 175.14 150.836 175.14H157.1L161.168 170.928C161.432 170.688 161.78 170.568 162.212 170.568H168.62C168.908 170.568 169.088 170.676 169.16 170.892C169.232 171.108 169.16 171.312 168.944 171.504L160.592 180.18ZM165.272 177.984C164.912 177.672 164.9 177.324 165.236 176.94L168.62 173.412C168.956 173.076 169.304 173.076 169.664 173.412L171.644 175.14H177.728C178.232 175.14 178.484 175.38 178.484 175.86V179.82C178.484 180.3 178.232 180.54 177.728 180.54H176.54H176.468H169.16C168.944 180.54 168.752 180.504 168.584 180.432C168.44 180.384 168.284 180.3 168.116 180.18L165.272 177.984Z" fill="#F26E22"/>
</svg>
