<svg width="158" height="164" viewBox="0 0 158 164" fill="none" xmlns="http://www.w3.org/2000/svg">
<g filter="url(#filter0_d_434_1260)">
<path d="M104.73 2.31581C81.2418 5.70647 71.29 21.6263 71.29 21.6263C70.0525 18.3766 68.4601 15.2725 66.5414 12.3699C66.4021 12.1645 66.2017 12.0078 65.9684 11.9216C65.7351 11.8354 65.4806 11.8242 65.2406 11.8894C62.5535 12.7256 60.0565 14.0776 57.8904 15.8694C57.7674 15.9686 57.6654 16.0912 57.5905 16.2301C57.5155 16.369 57.469 16.5213 57.4538 16.6783C57.4385 16.8353 57.4548 16.9937 57.5017 17.1443C57.5485 17.295 57.625 17.4348 57.7267 17.5557C61.4204 22.1275 64.4237 27.2128 66.6415 32.6504C66.655 32.6594 66.6708 32.6642 66.687 32.6642C66.7032 32.6642 66.719 32.6594 66.7325 32.6504C70.6857 32.053 74.6781 31.75 78.6765 31.7438H79.6954C81.4692 29.5318 88.6466 20.8103 94.9052 16.096C95.0507 15.9746 95.2368 15.9123 95.4264 15.9215C95.616 15.9307 95.7951 16.0107 95.9282 16.1456C96.0612 16.2805 96.1385 16.4604 96.1444 16.6494C96.1504 16.8385 96.0847 17.0228 95.9604 17.1658C92.8038 21.1548 88.683 25.8419 84.4166 31.7982C84.4071 31.8125 84.4015 31.829 84.4003 31.846C84.399 31.8631 84.4022 31.8802 84.4095 31.8957C84.4169 31.9112 84.428 31.9245 84.442 31.9344C84.456 31.9443 84.4723 31.9505 84.4894 31.9524C88.781 32.2633 93.0402 32.9212 97.2249 33.9197C97.2376 33.926 97.2516 33.9294 97.2658 33.9294C97.28 33.9294 97.294 33.926 97.3067 33.9197C107.313 25.2798 109.06 12.8142 109.205 6.24136C109.211 5.67759 109.094 5.11929 108.863 4.60447C108.633 4.08964 108.294 3.63037 107.869 3.25789C107.444 2.8854 106.944 2.60846 106.402 2.4459C105.861 2.28334 105.29 2.23896 104.73 2.31581V2.31581Z" fill="#DBDBDB"/>
<path d="M78.6947 36.0955C43.745 36.0955 15.3994 60.3106 15.3994 90.1828C15.3994 108.641 26.2246 124.933 42.7443 134.697L37.7684 151.496C37.573 152.153 37.5776 152.853 37.7817 153.508C37.9858 154.162 38.3802 154.742 38.9149 155.173C39.4497 155.604 40.1007 155.867 40.7857 155.929C41.4706 155.991 42.1586 155.849 42.7625 155.521L65.7409 143.155C70.0184 143.897 74.3531 144.261 78.6947 144.243C113.654 144.243 141.999 120.028 141.999 90.1556C141.999 60.2834 113.654 36.0955 78.6947 36.0955Z" fill="#DBDBDB"/>
<path d="M48.0572 54C47.8406 56 48.1222 60 50.9807 60C53.8393 60 54.229 56 53.9042 54" stroke="white" stroke-width="2" stroke-linecap="round"/>
<path d="M36.0572 65C35.8406 67 36.1222 71 38.9807 71C41.8393 71 42.229 67 41.9042 65" stroke="white" stroke-width="2" stroke-linecap="round"/>
</g>
<path d="M48.822 106.392H33.622V80.628H48.48V84.2H37.878V90.812H47.758V94.384H37.878V102.82H48.822V106.392ZM69.114 106.392H63.908L59.31 96.056H56.232V106.392H51.976V80.628H58.588C61.704 80.628 63.9713 81.2867 65.39 82.604C66.834 83.9213 67.556 85.72 67.556 88C67.556 89.824 67.1633 91.3313 66.378 92.522C65.618 93.6873 64.5793 94.536 63.262 95.068L69.114 106.392ZM63.186 88.038C63.186 87.3033 63.072 86.6953 62.844 86.214C62.6413 85.7073 62.35 85.3147 61.97 85.036C61.59 84.732 61.134 84.5167 60.602 84.39C60.0953 84.2633 59.538 84.2 58.93 84.2H56.232V92.522H57.904C58.816 92.522 59.6013 92.4713 60.26 92.37C60.9187 92.2687 61.4633 92.0533 61.894 91.724C62.3247 91.3947 62.6413 90.9387 62.844 90.356C63.072 89.7733 63.186 89.0007 63.186 88.038ZM88.114 106.392H82.908L78.31 96.056H75.232V106.392H70.976V80.628H77.588C80.704 80.628 82.9713 81.2867 84.39 82.604C85.834 83.9213 86.556 85.72 86.556 88C86.556 89.824 86.1633 91.3313 85.378 92.522C84.618 93.6873 83.5793 94.536 82.262 95.068L88.114 106.392ZM82.186 88.038C82.186 87.3033 82.072 86.6953 81.844 86.214C81.6413 85.7073 81.35 85.3147 80.97 85.036C80.59 84.732 80.134 84.5167 79.602 84.39C79.0953 84.2633 78.538 84.2 77.93 84.2H75.232V92.522H76.904C77.816 92.522 78.6013 92.4713 79.26 92.37C79.9187 92.2687 80.4633 92.0533 80.894 91.724C81.3247 91.3947 81.6413 90.9387 81.844 90.356C82.072 89.7733 82.186 89.0007 82.186 88.038ZM97.462 80.21C99.058 80.21 100.388 80.4887 101.452 81.046C102.541 81.6033 103.403 82.4393 104.036 83.554C104.669 84.6433 105.113 86.024 105.366 87.696C105.645 89.368 105.784 91.3187 105.784 93.548C105.784 95.7773 105.645 97.728 105.366 99.4C105.113 101.072 104.669 102.465 104.036 103.58C103.403 104.669 102.541 105.493 101.452 106.05C100.388 106.607 99.058 106.886 97.462 106.886C95.866 106.886 94.536 106.607 93.472 106.05C92.408 105.493 91.5593 104.669 90.926 103.58C90.2927 102.465 89.8367 101.072 89.558 99.4C89.3047 97.728 89.178 95.7773 89.178 93.548C89.178 91.3187 89.3047 89.368 89.558 87.696C89.8367 86.024 90.2927 84.6433 90.926 83.554C91.5593 82.4393 92.408 81.6033 93.472 81.046C94.536 80.4887 95.866 80.21 97.462 80.21ZM97.462 83.706C95.9673 83.706 94.9033 84.4913 94.27 86.062C93.662 87.6327 93.358 90.128 93.358 93.548C93.358 96.968 93.662 99.4633 94.27 101.034C94.9033 102.605 95.9673 103.39 97.462 103.39C98.9313 103.39 99.9953 102.605 100.654 101.034C101.338 99.4633 101.68 96.968 101.68 93.548C101.68 90.128 101.338 87.6327 100.654 86.062C99.9953 84.4913 98.9313 83.706 97.462 83.706ZM126.114 106.392H120.908L116.31 96.056H113.232V106.392H108.976V80.628H115.588C118.704 80.628 120.971 81.2867 122.39 82.604C123.834 83.9213 124.556 85.72 124.556 88C124.556 89.824 124.163 91.3313 123.378 92.522C122.618 93.6873 121.579 94.536 120.262 95.068L126.114 106.392ZM120.186 88.038C120.186 87.3033 120.072 86.6953 119.844 86.214C119.641 85.7073 119.35 85.3147 118.97 85.036C118.59 84.732 118.134 84.5167 117.602 84.39C117.095 84.2633 116.538 84.2 115.93 84.2H113.232V92.522H114.904C115.816 92.522 116.601 92.4713 117.26 92.37C117.919 92.2687 118.463 92.0533 118.894 91.724C119.325 91.3947 119.641 90.9387 119.844 90.356C120.072 89.7733 120.186 89.0007 120.186 88.038Z" fill="white"/>
<defs>
<filter id="filter0_d_434_1260" x="-4" y="0" width="166" height="166" filterUnits="userSpaceOnUse" color-interpolation-filters="sRGB">
<feFlood flood-opacity="0" result="BackgroundImageFix"/>
<feColorMatrix in="SourceAlpha" type="matrix" values="0 0 0 0 0 0 0 0 0 0 0 0 0 0 0 0 0 0 127 0" result="hardAlpha"/>
<feOffset dy="4"/>
<feGaussianBlur stdDeviation="2"/>
<feComposite in2="hardAlpha" operator="out"/>
<feColorMatrix type="matrix" values="0 0 0 0 0 0 0 0 0 0 0 0 0 0 0 0 0 0 0.25 0"/>
<feBlend mode="normal" in2="BackgroundImageFix" result="effect1_dropShadow_434_1260"/>
<feBlend mode="normal" in="SourceGraphic" in2="effect1_dropShadow_434_1260" result="shape"/>
</filter>
</defs>
</svg>
